<svg xmlns="http://www.w3.org/2000/svg" xmlns:xlink="http://www.w3.org/1999/xlink" zoomAndPan="magnify" preserveAspectRatio="xMidYMid meet" version="1.0" viewBox="12.45 128.39 304.45 125.29"><defs><g/><clipPath id="efb00595e1"><path d="M 37.5 153.222656 L 113 153.222656 L 113 229 L 37.5 229 Z M 37.5 153.222656 " clip-rule="nonzero"/></clipPath><clipPath id="228840405e"><path d="M 89 194 L 132.75 194 L 132.75 238.722656 L 89 238.722656 Z M 89 194 " clip-rule="nonzero"/></clipPath><clipPath id="8f5b235987"><path d="M 65.125 194 L 75 194 L 75 202.6875 L 65.125 202.6875 Z M 65.125 194 " clip-rule="nonzero"/></clipPath><clipPath id="8115a3cecb"><path d="M 65.125 179 L 76 179 L 76 190 L 65.125 190 Z M 65.125 179 " clip-rule="nonzero"/></clipPath><clipPath id="84b2221875"><path d="M 71 186 L 85 186 L 85 202.6875 L 71 202.6875 Z M 71 186 " clip-rule="nonzero"/></clipPath><clipPath id="967b81a72e"><path d="M 104.503906 209.949219 L 118 209.949219 L 118 223.449219 L 104.503906 223.449219 Z M 104.503906 209.949219 " clip-rule="nonzero"/></clipPath></defs><path fill="#ffffff" d="M 72.652344 209.679688 C 62.355469 208.324219 55.101562 198.875 56.457031 188.574219 C 57.820312 178.273438 67.265625 171.023438 77.570312 172.378906 C 87.867188 173.738281 95.117188 183.1875 93.757812 193.492188 C 92.402344 203.785156 82.953125 211.035156 72.652344 209.679688 Z M 111.222656 195.832031 L 111.527344 190.148438 C 111.628906 188.332031 110.230469 186.777344 108.410156 186.679688 L 104.910156 186.488281 C 104.464844 183.535156 103.578125 180.703125 102.320312 178.066406 L 105.121094 175.941406 C 106.574219 174.835938 106.855469 172.765625 105.757812 171.3125 L 102.3125 166.785156 C 101.210938 165.332031 99.136719 165.054688 97.683594 166.15625 L 94.882812 168.285156 C 92.050781 165.816406 88.734375 163.859375 85.0625 162.582031 L 85.523438 159.101562 C 85.761719 157.289062 84.492188 155.632812 82.679688 155.394531 L 77.042969 154.652344 C 75.234375 154.414062 73.574219 155.683594 73.339844 157.492188 L 72.878906 160.96875 C 68.417969 161.296875 64.179688 162.609375 60.414062 164.714844 L 58.113281 162.066406 C 56.921875 160.6875 54.835938 160.542969 53.457031 161.738281 L 49.164062 165.46875 C 47.789062 166.660156 47.636719 168.746094 48.835938 170.125 L 51.128906 172.765625 C 48.78125 175.84375 47.003906 179.40625 45.972656 183.3125 L 42.46875 183.125 C 40.644531 183.023438 39.089844 184.421875 38.992188 186.246094 L 38.6875 191.925781 C 38.589844 193.742188 39.988281 195.296875 41.808594 195.398438 L 45.3125 195.585938 C 45.761719 198.539062 46.640625 201.367188 47.902344 203.996094 L 45.113281 206.117188 C 43.664062 207.222656 43.378906 209.296875 44.484375 210.746094 L 47.921875 215.269531 C 49.03125 216.726562 51.101562 217.003906 52.550781 215.90625 L 55.34375 213.78125 C 58.175781 216.25 61.496094 218.210938 65.171875 219.488281 L 64.707031 222.964844 C 64.472656 224.773438 65.746094 226.429688 67.554688 226.671875 L 73.191406 227.414062 C 75 227.652344 76.660156 226.378906 76.894531 224.570312 L 77.355469 221.09375 C 81.8125 220.765625 86.050781 219.449219 89.8125 217.339844 L 92.121094 219.996094 C 93.316406 221.375 95.398438 221.523438 96.777344 220.324219 L 101.070312 216.597656 C 102.453125 215.402344 102.59375 213.320312 101.398438 211.941406 L 99.097656 209.289062 C 101.441406 206.214844 103.214844 202.660156 104.242188 198.765625 L 107.75 198.953125 C 109.570312 199.046875 111.125 197.652344 111.222656 195.832031 " fill-opacity="1" fill-rule="nonzero"/><g clip-path="url(#efb00595e1)"><path stroke-linecap="round" transform="matrix(0.0405971, 0, 0, -0.0405971, -1.595002, 281.749112)" fill="none" stroke-linejoin="round" d="M 1828.883137 1775.235929 C 1575.247388 1808.624247 1396.566968 2041.38027 1429.955285 2295.11224 C 1463.536043 2548.844209 1696.195846 2727.428409 1950.024035 2694.040091 C 2203.659785 2660.555554 2382.243985 2427.79953 2348.759447 2173.971341 C 2315.37113 1920.431812 2082.615106 1741.847612 1828.883137 1775.235929 Z M 2778.958778 2116.3356 L 2786.463933 2256.335606 C 2788.965651 2301.077876 2754.518914 2339.37341 2709.680424 2341.778908 L 2623.467362 2346.493685 C 2612.49829 2419.235956 2590.656364 2488.995409 2559.673545 2553.943865 L 2628.663239 2606.28751 C 2664.457055 2633.517752 2671.38489 2684.514318 2644.347088 2720.308134 L 2559.481105 2831.827038 C 2532.347084 2867.620854 2481.254298 2874.45247 2445.460482 2847.318448 L 2376.470788 2794.878583 C 2306.711335 2855.689582 2225.02061 2903.89577 2134.573871 2935.359689 L 2145.927824 3021.091651 C 2151.79724 3065.737701 2120.525761 3106.534954 2075.879711 3112.40437 L 1937.034344 3130.686157 C 1892.484514 3136.555573 1851.591042 3105.284094 1845.817845 3060.734264 L 1834.463893 2975.098522 C 1724.580727 2967.016047 1620.182097 2934.686149 1527.42608 2882.823604 L 1470.752538 2948.06072 C 1441.405458 2982.026357 1390.024012 2985.586495 1356.058375 2956.143195 L 1250.312666 2864.253157 C 1216.443249 2834.906076 1212.690672 2783.524631 1242.230192 2749.558994 L 1298.711294 2684.514318 C 1240.883113 2608.693009 1197.103042 2520.940428 1171.700979 2424.720492 L 1085.391697 2429.339049 C 1040.456987 2431.840768 1002.161453 2397.394031 999.755955 2352.459321 L 992.2508 2212.555535 C 989.845301 2167.813265 1024.292038 2129.517731 1069.130528 2127.016013 L 1155.43981 2122.397456 C 1166.505103 2049.655185 1188.154588 1979.991952 1219.233627 1915.235935 L 1150.532593 1862.98851 C 1114.834997 1835.758269 1107.810942 1784.665483 1135.041184 1748.967887 L 1219.714727 1637.545202 C 1247.041188 1601.655166 1298.037754 1594.823551 1333.73535 1621.861353 L 1402.532604 1674.204997 C 1472.292057 1613.393998 1554.079002 1565.091591 1644.621961 1533.627672 L 1633.171789 1447.99193 C 1627.398592 1403.4421 1658.766291 1362.644847 1703.316121 1356.679211 L 1842.161488 1338.397423 C 1886.711318 1332.528007 1927.60479 1363.895706 1933.377987 1408.445536 L 1944.731939 1494.081279 C 2054.518885 1502.163753 2158.917515 1534.589871 2251.577312 1586.452416 L 2308.443294 1521.11908 C 2337.886594 1487.153443 2389.17182 1483.497086 2423.137457 1513.036606 L 2528.883166 1604.830424 C 2562.945023 1634.273724 2566.408941 1685.55895 2536.96564 1719.524587 L 2480.292099 1784.857923 C 2538.02406 1860.583012 2581.70791 1948.143153 2607.013753 2044.074429 L 2693.419255 2039.455872 C 2738.257745 2037.146593 2776.553279 2071.49711 2778.958778 2116.3356 Z M 2778.958778 2116.3356 " stroke="#231f1f" stroke-width="52.472" stroke-opacity="1" stroke-miterlimit="10"/></g><path fill="#ffffff" d="M 111.015625 207.433594 C 106.46875 207.433594 102.589844 210.84375 101.992188 215.359375 C 101.675781 217.777344 102.316406 220.167969 103.800781 222.101562 C 105.28125 224.03125 107.429688 225.269531 109.839844 225.585938 C 110.242188 225.640625 110.644531 225.667969 111.046875 225.667969 C 115.59375 225.667969 119.472656 222.257812 120.070312 217.742188 C 120.386719 215.328125 119.746094 212.9375 118.265625 211 C 116.78125 209.070312 114.636719 207.828125 112.222656 207.511719 C 111.824219 207.460938 111.417969 207.433594 111.015625 207.433594 Z M 110.230469 237.324219 C 110.105469 237.324219 109.980469 237.316406 109.851562 237.296875 L 106.804688 236.894531 C 105.246094 236.691406 104.144531 235.253906 104.347656 233.699219 L 104.484375 232.652344 C 102.984375 232.042969 101.582031 231.230469 100.304688 230.222656 L 99.46875 230.859375 C 98.96875 231.242188 98.371094 231.441406 97.742188 231.441406 C 96.84375 231.441406 96.011719 231.03125 95.46875 230.316406 L 93.605469 227.863281 C 92.65625 226.613281 92.902344 224.820312 94.152344 223.871094 L 94.988281 223.234375 C 94.558594 222.195312 94.230469 221.128906 94.003906 220.035156 L 92.953125 219.976562 C 92.1875 219.9375 91.488281 219.601562 90.984375 219.035156 C 90.476562 218.464844 90.214844 217.734375 90.257812 216.976562 L 90.421875 213.902344 C 90.503906 212.390625 91.753906 211.203125 93.269531 211.203125 C 93.320312 211.203125 93.371094 211.203125 93.421875 211.207031 L 94.472656 211.265625 C 94.988281 209.644531 95.734375 208.125 96.695312 206.726562 L 96.003906 205.933594 C 95.503906 205.359375 95.261719 204.621094 95.3125 203.863281 C 95.371094 203.105469 95.714844 202.410156 96.292969 201.910156 L 98.613281 199.894531 C 99.132812 199.441406 99.796875 199.195312 100.488281 199.195312 C 101.308594 199.195312 102.09375 199.550781 102.636719 200.175781 L 103.328125 200.972656 C 105.082031 200.105469 106.945312 199.542969 108.878906 199.304688 L 109.015625 198.261719 C 109.203125 196.847656 110.417969 195.78125 111.84375 195.78125 C 111.96875 195.78125 112.09375 195.789062 112.21875 195.804688 L 115.269531 196.207031 C 116.828125 196.414062 117.925781 197.851562 117.722656 199.40625 L 117.585938 200.453125 C 119.089844 201.0625 120.484375 201.878906 121.761719 202.882812 L 122.609375 202.238281 C 123.105469 201.859375 123.703125 201.660156 124.328125 201.660156 C 125.230469 201.660156 126.058594 202.070312 126.601562 202.785156 L 128.464844 205.234375 C 129.414062 206.484375 129.171875 208.28125 127.921875 209.230469 L 127.078125 209.871094 C 127.507812 210.90625 127.835938 211.980469 128.058594 213.074219 L 129.113281 213.132812 C 130.683594 213.21875 131.890625 214.566406 131.808594 216.132812 L 131.640625 219.207031 C 131.558594 220.71875 130.308594 221.90625 128.792969 221.90625 C 128.742188 221.90625 128.691406 221.90625 128.640625 221.902344 L 127.585938 221.84375 C 127.074219 223.457031 126.332031 224.972656 125.371094 226.371094 L 126.066406 227.171875 C 127.097656 228.355469 126.96875 230.164062 125.78125 231.195312 L 123.457031 233.210938 C 122.9375 233.660156 122.273438 233.910156 121.589844 233.910156 C 120.761719 233.910156 119.976562 233.550781 119.433594 232.925781 L 118.738281 232.128906 C 116.988281 232.996094 115.128906 233.554688 113.191406 233.796875 L 113.054688 234.84375 C 112.867188 236.257812 111.65625 237.324219 110.230469 237.324219 " fill-opacity="1" fill-rule="nonzero"/><g clip-path="url(#228840405e)"><path fill="#000000" d="M 111.046875 224.601562 C 110.691406 224.601562 110.332031 224.582031 109.980469 224.53125 C 107.851562 224.25 105.949219 223.160156 104.644531 221.449219 C 103.335938 219.746094 102.769531 217.628906 103.050781 215.5 C 103.574219 211.507812 107.003906 208.5 111.015625 208.5 C 111.375 208.5 111.730469 208.523438 112.085938 208.570312 C 114.214844 208.847656 116.113281 209.945312 117.417969 211.648438 C 118.730469 213.355469 119.296875 215.46875 119.015625 217.601562 C 118.488281 221.59375 115.0625 224.601562 111.046875 224.601562 Z M 111.839844 194.71875 C 109.882812 194.71875 108.214844 196.183594 107.960938 198.125 L 107.929688 198.367188 C 106.4375 198.617188 104.992188 199.054688 103.605469 199.664062 L 103.441406 199.480469 C 102.699219 198.621094 101.617188 198.132812 100.488281 198.128906 C 99.539062 198.128906 98.632812 198.46875 97.917969 199.089844 L 95.59375 201.101562 C 94.804688 201.789062 94.328125 202.742188 94.253906 203.785156 C 94.175781 204.828125 94.515625 205.839844 95.199219 206.628906 L 95.363281 206.816406 C 94.707031 207.875 94.15625 208.992188 93.726562 210.160156 L 93.480469 210.144531 C 93.410156 210.140625 93.335938 210.140625 93.269531 210.140625 C 91.191406 210.140625 89.46875 211.769531 89.359375 213.847656 L 89.191406 216.917969 C 89.136719 217.964844 89.488281 218.964844 90.191406 219.746094 C 90.886719 220.523438 91.847656 220.984375 92.894531 221.039062 L 93.144531 221.054688 C 93.300781 221.667969 93.488281 222.273438 93.707031 222.871094 L 93.507812 223.019531 C 91.789062 224.328125 91.453125 226.789062 92.757812 228.511719 L 94.621094 230.957031 C 95.371094 231.945312 96.507812 232.503906 97.742188 232.503906 C 98.605469 232.503906 99.421875 232.230469 100.113281 231.710938 L 100.308594 231.558594 C 101.257812 232.238281 102.265625 232.820312 103.324219 233.308594 L 103.292969 233.554688 C 103.011719 235.699219 104.523438 237.667969 106.660156 237.953125 L 109.714844 238.351562 C 109.882812 238.375 110.058594 238.386719 110.230469 238.386719 C 112.1875 238.386719 113.855469 236.921875 114.109375 234.980469 L 114.144531 234.734375 C 115.632812 234.480469 117.078125 234.046875 118.460938 233.433594 L 118.628906 233.625 C 119.375 234.480469 120.453125 234.972656 121.589844 234.972656 C 122.53125 234.972656 123.445312 234.632812 124.15625 234.015625 L 126.480469 231.996094 C 128.109375 230.582031 128.289062 228.105469 126.871094 226.472656 L 126.703125 226.28125 C 127.359375 225.226562 127.902344 224.113281 128.332031 222.953125 L 128.582031 222.964844 C 128.652344 222.96875 128.726562 222.96875 128.792969 222.96875 C 130.875 222.96875 132.59375 221.339844 132.703125 219.265625 L 132.871094 216.1875 C 132.988281 214.03125 131.328125 212.1875 129.171875 212.066406 L 128.921875 212.050781 C 128.765625 211.4375 128.578125 210.828125 128.359375 210.234375 L 128.5625 210.078125 C 130.285156 208.773438 130.621094 206.3125 129.3125 204.589844 L 127.449219 202.140625 C 126.703125 201.15625 125.566406 200.589844 124.328125 200.589844 C 123.46875 200.589844 122.648438 200.871094 121.960938 201.394531 L 121.757812 201.546875 C 120.8125 200.867188 119.804688 200.28125 118.746094 199.796875 L 118.78125 199.546875 C 119.058594 197.40625 117.550781 195.4375 115.410156 195.152344 L 112.355469 194.75 C 112.1875 194.726562 112.011719 194.71875 111.839844 194.71875 Z M 111.046875 226.730469 C 116.074219 226.730469 120.449219 223.003906 121.125 217.882812 C 121.859375 212.308594 117.933594 207.191406 112.359375 206.457031 C 111.910156 206.398438 111.464844 206.367188 111.015625 206.367188 C 105.988281 206.367188 101.613281 210.097656 100.9375 215.21875 C 100.203125 220.796875 104.128906 225.910156 109.703125 226.644531 C 110.152344 226.703125 110.597656 226.730469 111.046875 226.730469 M 111.839844 196.84375 C 111.917969 196.84375 112 196.847656 112.078125 196.859375 L 115.128906 197.261719 C 116.109375 197.390625 116.796875 198.289062 116.667969 199.269531 L 116.421875 201.152344 C 118.40625 201.847656 120.199219 202.90625 121.734375 204.242188 L 123.25 203.089844 C 123.574219 202.84375 123.957031 202.722656 124.328125 202.722656 C 124.867188 202.722656 125.402344 202.964844 125.753906 203.429688 L 127.617188 205.878906 C 128.214844 206.664062 128.0625 207.785156 127.277344 208.382812 L 125.757812 209.535156 C 126.441406 210.964844 126.917969 212.496094 127.164062 214.09375 L 129.054688 214.195312 C 130.042969 214.25 130.796875 215.089844 130.742188 216.074219 L 130.578125 219.148438 C 130.527344 220.101562 129.738281 220.835938 128.792969 220.835938 L 128.699219 220.835938 L 126.800781 220.734375 C 126.242188 222.847656 125.28125 224.765625 124.011719 226.429688 L 125.261719 227.867188 C 125.910156 228.613281 125.832031 229.738281 125.085938 230.390625 L 122.757812 232.40625 C 122.421875 232.699219 122.003906 232.84375 121.589844 232.84375 C 121.089844 232.84375 120.589844 232.632812 120.238281 232.230469 L 118.992188 230.792969 C 116.953125 231.933594 114.660156 232.644531 112.246094 232.820312 L 112 234.707031 C 111.882812 235.601562 111.109375 236.257812 110.230469 236.257812 C 110.152344 236.257812 110.070312 236.253906 109.996094 236.242188 L 106.941406 235.835938 C 105.964844 235.710938 105.277344 234.816406 105.402344 233.835938 L 105.65625 231.953125 C 103.664062 231.261719 101.867188 230.203125 100.332031 228.863281 L 98.820312 230.011719 C 98.496094 230.253906 98.121094 230.378906 97.742188 230.378906 C 97.203125 230.378906 96.671875 230.132812 96.316406 229.671875 L 94.453125 227.21875 C 93.855469 226.4375 94.011719 225.316406 94.796875 224.714844 L 96.304688 223.570312 C 95.625 222.144531 95.148438 220.613281 94.90625 219.019531 L 93.007812 218.914062 C 92.023438 218.859375 91.265625 218.019531 91.320312 217.035156 L 91.484375 213.960938 C 91.539062 213.007812 92.328125 212.265625 93.269531 212.265625 C 93.300781 212.265625 93.332031 212.269531 93.367188 212.269531 L 95.261719 212.371094 C 95.816406 210.261719 96.78125 208.332031 98.054688 206.664062 L 96.808594 205.234375 C 96.164062 204.488281 96.242188 203.359375 96.992188 202.714844 L 99.3125 200.695312 C 99.648438 200.402344 100.066406 200.257812 100.488281 200.257812 C 100.984375 200.257812 101.480469 200.464844 101.835938 200.875 L 103.082031 202.308594 C 105.117188 201.167969 107.414062 200.457031 109.824219 200.277344 L 110.074219 198.398438 C 110.191406 197.503906 110.960938 196.84375 111.839844 196.84375 " fill-opacity="1" fill-rule="nonzero"/></g><g fill="#ffffff" fill-opacity="1"><g transform="translate(141.676679, 185.596761)"><g><path d="M 0.328125 0 C 0.109375 0 0 -0.109375 0 -0.328125 L 0 -13.375 C 0 -14.351562 0.320312 -15.164062 0.96875 -15.8125 C 1.625 -16.46875 2.441406 -16.796875 3.421875 -16.796875 L 13.375 -16.796875 C 14 -16.796875 14.578125 -16.648438 15.109375 -16.359375 C 15.648438 -16.648438 16.234375 -16.796875 16.859375 -16.796875 L 26.8125 -16.796875 C 27.789062 -16.796875 28.601562 -16.46875 29.25 -15.8125 C 29.90625 -15.164062 30.234375 -14.351562 30.234375 -13.375 L 30.234375 -0.328125 C 30.234375 -0.109375 30.117188 0 29.890625 0 L 27.203125 0 C 26.984375 0 26.875 -0.109375 26.875 -0.328125 L 26.875 -12.765625 C 26.875 -12.941406 26.804688 -13.097656 26.671875 -13.234375 C 26.535156 -13.367188 26.378906 -13.4375 26.203125 -13.4375 L 17.46875 -13.4375 C 17.289062 -13.4375 17.132812 -13.367188 17 -13.234375 C 16.863281 -13.097656 16.796875 -12.941406 16.796875 -12.765625 L 16.796875 -0.328125 C 16.796875 -0.109375 16.679688 0 16.453125 0 L 13.765625 0 C 13.546875 0 13.4375 -0.109375 13.4375 -0.328125 L 13.4375 -12.765625 C 13.4375 -12.941406 13.367188 -13.097656 13.234375 -13.234375 C 13.097656 -13.367188 12.941406 -13.4375 12.765625 -13.4375 L 4.03125 -13.4375 C 3.851562 -13.4375 3.695312 -13.367188 3.5625 -13.234375 C 3.425781 -13.097656 3.359375 -12.941406 3.359375 -12.765625 L 3.359375 -0.328125 C 3.359375 -0.109375 3.242188 0 3.015625 0 Z M 0.328125 0 "/></g></g></g><g fill="#ffffff" fill-opacity="1"><g transform="translate(175.262579, 185.596761)"><g><path d="M 0.328125 0 C 0.109375 0 0 -0.109375 0 -0.328125 L 0 -13.375 C 0 -14.351562 0.320312 -15.164062 0.96875 -15.8125 C 1.625 -16.46875 2.441406 -16.796875 3.421875 -16.796875 L 20.09375 -16.796875 C 21.070312 -16.796875 21.882812 -16.46875 22.53125 -15.8125 C 23.1875 -15.164062 23.515625 -14.351562 23.515625 -13.375 L 23.515625 -0.328125 C 23.515625 -0.109375 23.398438 0 23.171875 0 L 20.484375 0 C 20.265625 0 20.15625 -0.109375 20.15625 -0.328125 L 20.15625 -6.71875 L 3.359375 -6.71875 L 3.359375 -0.328125 C 3.359375 -0.109375 3.242188 0 3.015625 0 Z M 3.359375 -10.078125 L 20.15625 -10.078125 L 20.15625 -12.765625 C 20.15625 -12.941406 20.085938 -13.097656 19.953125 -13.234375 C 19.816406 -13.367188 19.660156 -13.4375 19.484375 -13.4375 L 4.03125 -13.4375 C 3.851562 -13.4375 3.695312 -13.367188 3.5625 -13.234375 C 3.425781 -13.097656 3.359375 -12.941406 3.359375 -12.765625 Z M 3.359375 -10.078125 "/></g></g></g><g fill="#ffffff" fill-opacity="1"><g transform="translate(202.131302, 185.596761)"><g><path d="M 0.328125 0 C 0.109375 0 0 -0.109375 0 -0.328125 L 0 -16.453125 C 0 -16.679688 0.109375 -16.796875 0.328125 -16.796875 L 20.09375 -16.796875 C 21.070312 -16.796875 21.882812 -16.46875 22.53125 -15.8125 C 23.1875 -15.164062 23.515625 -14.351562 23.515625 -13.375 L 23.515625 -3.421875 C 23.515625 -2.441406 23.1875 -1.625 22.53125 -0.96875 C 21.882812 -0.320312 21.070312 0 20.09375 0 Z M 3.359375 -3.359375 L 19.484375 -3.359375 C 19.660156 -3.359375 19.816406 -3.425781 19.953125 -3.5625 C 20.085938 -3.695312 20.15625 -3.851562 20.15625 -4.03125 L 20.15625 -12.765625 C 20.15625 -12.941406 20.085938 -13.097656 19.953125 -13.234375 C 19.816406 -13.367188 19.660156 -13.4375 19.484375 -13.4375 L 3.359375 -13.4375 Z M 3.359375 -3.359375 "/></g></g></g><g fill="#ffffff" fill-opacity="1"><g transform="translate(229.000025, 185.596761)"><g><path d="M 0.328125 0 C 0.109375 0 0 -0.109375 0 -0.328125 L 0 -13.375 C 0 -14.351562 0.320312 -15.164062 0.96875 -15.8125 C 1.625 -16.46875 2.441406 -16.796875 3.421875 -16.796875 L 20.09375 -16.796875 C 21.070312 -16.796875 21.882812 -16.46875 22.53125 -15.8125 C 23.1875 -15.164062 23.515625 -14.351562 23.515625 -13.375 L 23.515625 -0.328125 C 23.515625 -0.109375 23.398438 0 23.171875 0 L 20.484375 0 C 20.265625 0 20.15625 -0.109375 20.15625 -0.328125 L 20.15625 -6.71875 L 3.359375 -6.71875 L 3.359375 -0.328125 C 3.359375 -0.109375 3.242188 0 3.015625 0 Z M 3.359375 -10.078125 L 20.15625 -10.078125 L 20.15625 -12.765625 C 20.15625 -12.941406 20.085938 -13.097656 19.953125 -13.234375 C 19.816406 -13.367188 19.660156 -13.4375 19.484375 -13.4375 L 4.03125 -13.4375 C 3.851562 -13.4375 3.695312 -13.367188 3.5625 -13.234375 C 3.425781 -13.097656 3.359375 -12.941406 3.359375 -12.765625 Z M 3.359375 -10.078125 "/></g></g></g><g fill="#ffffff" fill-opacity="1"><g transform="translate(255.868748, 185.596761)"><g><path d="M 0.328125 0 C 0.109375 0 0 -0.109375 0 -0.328125 L 0 -13.375 C 0 -14.351562 0.320312 -15.164062 0.96875 -15.8125 C 1.625 -16.46875 2.441406 -16.796875 3.421875 -16.796875 L 20.09375 -16.796875 C 21.070312 -16.796875 21.882812 -16.46875 22.53125 -15.8125 C 23.1875 -15.164062 23.515625 -14.351562 23.515625 -13.375 L 23.515625 -0.328125 C 23.515625 -0.109375 23.398438 0 23.171875 0 L 20.484375 0 C 20.265625 0 20.15625 -0.109375 20.15625 -0.328125 L 20.15625 -6.71875 L 3.359375 -6.71875 L 3.359375 -0.328125 C 3.359375 -0.109375 3.242188 0 3.015625 0 Z M 3.359375 -10.078125 L 20.15625 -10.078125 L 20.15625 -12.765625 C 20.15625 -12.941406 20.085938 -13.097656 19.953125 -13.234375 C 19.816406 -13.367188 19.660156 -13.4375 19.484375 -13.4375 L 4.03125 -13.4375 C 3.851562 -13.4375 3.695312 -13.367188 3.5625 -13.234375 C 3.425781 -13.097656 3.359375 -12.941406 3.359375 -12.765625 Z M 3.359375 -10.078125 "/></g></g></g><g fill="#ffffff" fill-opacity="1"><g transform="translate(282.73747, 185.596761)"><g><path d="M 0.328125 0 C 0.109375 0 0 -0.109375 0 -0.328125 L 0 -16.453125 C 0 -16.679688 0.109375 -16.796875 0.328125 -16.796875 L 20.09375 -16.796875 C 21.070312 -16.796875 21.882812 -16.46875 22.53125 -15.8125 C 23.1875 -15.164062 23.515625 -14.351562 23.515625 -13.375 L 23.515625 -10.140625 C 23.515625 -9.160156 23.1875 -8.34375 22.53125 -7.6875 C 21.882812 -7.039062 21.070312 -6.71875 20.09375 -6.71875 L 19.75 -6.71875 L 22.109375 0 L 18.40625 0 L 16.0625 -6.71875 L 3.359375 -6.71875 L 3.359375 -0.328125 C 3.359375 -0.109375 3.242188 0 3.015625 0 Z M 3.359375 -10.078125 L 19.484375 -10.078125 C 19.660156 -10.078125 19.816406 -10.144531 19.953125 -10.28125 C 20.085938 -10.414062 20.15625 -10.570312 20.15625 -10.75 L 20.15625 -12.765625 C 20.15625 -12.941406 20.085938 -13.097656 19.953125 -13.234375 C 19.816406 -13.367188 19.660156 -13.4375 19.484375 -13.4375 L 3.359375 -13.4375 Z M 3.359375 -10.078125 "/></g></g></g><g fill="#ffffff" fill-opacity="1"><g transform="translate(142.488423, 219.971513)"><g><path d="M 7.3125 -5.65625 L 6.046875 -5.65625 L 5.875 -6.796875 C 5.707031 -6.960938 5.492188 -7.09375 5.234375 -7.1875 C 4.984375 -7.289062 4.679688 -7.34375 4.328125 -7.34375 C 3.585938 -7.34375 3.015625 -7.070312 2.609375 -6.53125 C 2.210938 -5.988281 2.015625 -5.285156 2.015625 -4.421875 L 2.015625 -4.125 C 2.015625 -3.25 2.210938 -2.539062 2.609375 -2 C 3.015625 -1.457031 3.578125 -1.1875 4.296875 -1.1875 C 4.640625 -1.1875 4.945312 -1.234375 5.21875 -1.328125 C 5.5 -1.429688 5.71875 -1.566406 5.875 -1.734375 L 6.046875 -2.875 L 7.3125 -2.875 L 7.3125 -1.1875 C 6.96875 -0.789062 6.53125 -0.472656 6 -0.234375 C 5.46875 0.00390625 4.875 0.125 4.21875 0.125 C 3.070312 0.125 2.132812 -0.269531 1.40625 -1.0625 C 0.675781 -1.851562 0.3125 -2.875 0.3125 -4.125 L 0.3125 -4.40625 C 0.3125 -5.644531 0.671875 -6.660156 1.390625 -7.453125 C 2.117188 -8.253906 3.0625 -8.65625 4.21875 -8.65625 C 4.875 -8.65625 5.46875 -8.535156 6 -8.296875 C 6.53125 -8.054688 6.96875 -7.738281 7.3125 -7.34375 Z M 7.3125 -5.65625 "/></g></g></g><g fill="#ffffff" fill-opacity="1"><g transform="translate(159.863872, 219.971513)"><g><path d="M 0.234375 -1.03125 L 0.84375 -1.109375 L 3.453125 -8.53125 L 5.203125 -8.53125 L 7.78125 -1.109375 L 8.390625 -1.03125 L 8.390625 0 L 5.484375 0 L 5.484375 -1.03125 L 6.078125 -1.125 L 5.703125 -2.296875 L 2.9375 -2.296875 L 2.5625 -1.125 L 3.140625 -1.03125 L 3.140625 0 L 0.234375 0 Z M 3.328125 -3.5625 L 5.296875 -3.5625 L 4.328125 -6.5625 L 4.296875 -6.5625 Z M 3.328125 -3.5625 "/></g></g></g><g fill="#ffffff" fill-opacity="1"><g transform="translate(178.083071, 219.971513)"><g><path d="M 4.15625 -8.53125 C 5.125 -8.53125 5.882812 -8.304688 6.4375 -7.859375 C 6.988281 -7.421875 7.265625 -6.8125 7.265625 -6.03125 C 7.265625 -5.601562 7.148438 -5.226562 6.921875 -4.90625 C 6.691406 -4.59375 6.351562 -4.335938 5.90625 -4.140625 C 6.40625 -3.992188 6.765625 -3.75 6.984375 -3.40625 C 7.210938 -3.0625 7.328125 -2.628906 7.328125 -2.109375 L 7.328125 -1.6875 C 7.328125 -1.5 7.363281 -1.351562 7.4375 -1.25 C 7.507812 -1.144531 7.632812 -1.082031 7.8125 -1.0625 L 8.015625 -1.03125 L 8.015625 0 L 7.125 0 C 6.570312 0 6.179688 -0.148438 5.953125 -0.453125 C 5.722656 -0.753906 5.609375 -1.144531 5.609375 -1.625 L 5.609375 -2.109375 C 5.609375 -2.515625 5.5 -2.835938 5.28125 -3.078125 C 5.0625 -3.316406 4.75 -3.441406 4.34375 -3.453125 L 2.953125 -3.453125 L 2.953125 -1.203125 L 3.859375 -1.03125 L 3.859375 0 L 0.328125 0 L 0.328125 -1.03125 L 1.234375 -1.203125 L 1.234375 -7.328125 L 0.328125 -7.5 L 0.328125 -8.53125 Z M 2.953125 -4.765625 L 4.125 -4.765625 C 4.601562 -4.765625 4.960938 -4.863281 5.203125 -5.0625 C 5.441406 -5.269531 5.5625 -5.566406 5.5625 -5.953125 C 5.5625 -6.335938 5.441406 -6.644531 5.203125 -6.875 C 4.972656 -7.101562 4.625 -7.21875 4.15625 -7.21875 L 2.953125 -7.21875 Z M 2.953125 -4.765625 "/></g></g></g><g fill="#ffffff" fill-opacity="1"><g transform="translate(195.933129, 219.971513)"><g/></g></g><g fill="#ffffff" fill-opacity="1"><g transform="translate(208.474594, 219.971513)"><g><path d="M 6.8125 -5.8125 L 5.53125 -5.8125 L 5.296875 -6.984375 C 5.148438 -7.078125 4.929688 -7.15625 4.640625 -7.21875 C 4.359375 -7.289062 4.0625 -7.328125 3.75 -7.328125 C 3.28125 -7.328125 2.914062 -7.226562 2.65625 -7.03125 C 2.40625 -6.832031 2.28125 -6.578125 2.28125 -6.265625 C 2.28125 -5.984375 2.410156 -5.75 2.671875 -5.5625 C 2.941406 -5.375 3.40625 -5.175781 4.0625 -4.96875 C 5 -4.707031 5.710938 -4.359375 6.203125 -3.921875 C 6.691406 -3.492188 6.9375 -2.929688 6.9375 -2.234375 C 6.9375 -1.503906 6.644531 -0.925781 6.0625 -0.5 C 5.488281 -0.0820312 4.726562 0.125 3.78125 0.125 C 3.101562 0.125 2.488281 0.0195312 1.9375 -0.1875 C 1.394531 -0.40625 0.945312 -0.707031 0.59375 -1.09375 L 0.59375 -2.875 L 1.90625 -2.875 L 2.09375 -1.65625 C 2.257812 -1.519531 2.488281 -1.40625 2.78125 -1.3125 C 3.082031 -1.21875 3.414062 -1.171875 3.78125 -1.171875 C 4.25 -1.171875 4.601562 -1.265625 4.84375 -1.453125 C 5.09375 -1.648438 5.21875 -1.910156 5.21875 -2.234375 C 5.21875 -2.554688 5.097656 -2.816406 4.859375 -3.015625 C 4.628906 -3.210938 4.222656 -3.398438 3.640625 -3.578125 C 2.628906 -3.867188 1.863281 -4.21875 1.34375 -4.625 C 0.820312 -5.03125 0.5625 -5.582031 0.5625 -6.28125 C 0.5625 -6.96875 0.851562 -7.53125 1.4375 -7.96875 C 2.03125 -8.40625 2.769531 -8.632812 3.65625 -8.65625 C 4.3125 -8.65625 4.910156 -8.550781 5.453125 -8.34375 C 5.992188 -8.144531 6.445312 -7.878906 6.8125 -7.546875 Z M 6.8125 -5.8125 "/></g></g></g><g fill="#ffffff" fill-opacity="1"><g transform="translate(225.351996, 219.971513)"><g><path d="M 5.84375 -3.75 L 2.953125 -3.75 L 2.953125 -1.3125 L 5.703125 -1.3125 L 5.78125 -2.328125 L 7.078125 -2.328125 L 7.078125 0 L 0.328125 0 L 0.328125 -1.03125 L 1.234375 -1.203125 L 1.234375 -7.328125 L 0.328125 -7.5 L 0.328125 -8.53125 L 7.0625 -8.53125 L 7.0625 -6.1875 L 5.75 -6.1875 L 5.671875 -7.21875 L 2.953125 -7.21875 L 2.953125 -5.0625 L 5.84375 -5.0625 Z M 5.84375 -3.75 "/></g></g></g><g fill="#ffffff" fill-opacity="1"><g transform="translate(242.616117, 219.971513)"><g><path d="M 4.15625 -8.53125 C 5.125 -8.53125 5.882812 -8.304688 6.4375 -7.859375 C 6.988281 -7.421875 7.265625 -6.8125 7.265625 -6.03125 C 7.265625 -5.601562 7.148438 -5.226562 6.921875 -4.90625 C 6.691406 -4.59375 6.351562 -4.335938 5.90625 -4.140625 C 6.40625 -3.992188 6.765625 -3.75 6.984375 -3.40625 C 7.210938 -3.0625 7.328125 -2.628906 7.328125 -2.109375 L 7.328125 -1.6875 C 7.328125 -1.5 7.363281 -1.351562 7.4375 -1.25 C 7.507812 -1.144531 7.632812 -1.082031 7.8125 -1.0625 L 8.015625 -1.03125 L 8.015625 0 L 7.125 0 C 6.570312 0 6.179688 -0.148438 5.953125 -0.453125 C 5.722656 -0.753906 5.609375 -1.144531 5.609375 -1.625 L 5.609375 -2.109375 C 5.609375 -2.515625 5.5 -2.835938 5.28125 -3.078125 C 5.0625 -3.316406 4.75 -3.441406 4.34375 -3.453125 L 2.953125 -3.453125 L 2.953125 -1.203125 L 3.859375 -1.03125 L 3.859375 0 L 0.328125 0 L 0.328125 -1.03125 L 1.234375 -1.203125 L 1.234375 -7.328125 L 0.328125 -7.5 L 0.328125 -8.53125 Z M 2.953125 -4.765625 L 4.125 -4.765625 C 4.601562 -4.765625 4.960938 -4.863281 5.203125 -5.0625 C 5.441406 -5.269531 5.5625 -5.566406 5.5625 -5.953125 C 5.5625 -6.335938 5.441406 -6.644531 5.203125 -6.875 C 4.972656 -7.101562 4.625 -7.21875 4.15625 -7.21875 L 2.953125 -7.21875 Z M 2.953125 -4.765625 "/></g></g></g><g fill="#ffffff" fill-opacity="1"><g transform="translate(260.466175, 219.971513)"><g><path d="M 3.3125 -7.5 L 2.671875 -7.390625 L 4.171875 -2.265625 L 4.28125 -1.796875 L 4.3125 -1.796875 L 4.421875 -2.25 L 5.9375 -7.390625 L 5.296875 -7.5 L 5.296875 -8.53125 L 8.40625 -8.53125 L 8.40625 -7.5 L 7.6875 -7.40625 L 5.1875 0 L 3.421875 0 L 0.90625 -7.40625 L 0.203125 -7.5 L 0.203125 -8.53125 L 3.3125 -8.53125 Z M 3.3125 -7.5 "/></g></g></g><g fill="#ffffff" fill-opacity="1"><g transform="translate(278.667795, 219.971513)"><g><path d="M 0.328125 -7.5 L 0.328125 -8.53125 L 3.859375 -8.53125 L 3.859375 -7.5 L 2.9375 -7.328125 L 2.9375 -1.203125 L 3.859375 -1.03125 L 3.859375 0 L 0.328125 0 L 0.328125 -1.03125 L 1.234375 -1.203125 L 1.234375 -7.328125 Z M 0.328125 -7.5 "/></g></g></g><g fill="#ffffff" fill-opacity="1"><g transform="translate(292.445588, 219.971513)"><g><path d="M 7.3125 -5.65625 L 6.046875 -5.65625 L 5.875 -6.796875 C 5.707031 -6.960938 5.492188 -7.09375 5.234375 -7.1875 C 4.984375 -7.289062 4.679688 -7.34375 4.328125 -7.34375 C 3.585938 -7.34375 3.015625 -7.070312 2.609375 -6.53125 C 2.210938 -5.988281 2.015625 -5.285156 2.015625 -4.421875 L 2.015625 -4.125 C 2.015625 -3.25 2.210938 -2.539062 2.609375 -2 C 3.015625 -1.457031 3.578125 -1.1875 4.296875 -1.1875 C 4.640625 -1.1875 4.945312 -1.234375 5.21875 -1.328125 C 5.5 -1.429688 5.71875 -1.566406 5.875 -1.734375 L 6.046875 -2.875 L 7.3125 -2.875 L 7.3125 -1.1875 C 6.96875 -0.789062 6.53125 -0.472656 6 -0.234375 C 5.46875 0.00390625 4.875 0.125 4.21875 0.125 C 3.070312 0.125 2.132812 -0.269531 1.40625 -1.0625 C 0.675781 -1.851562 0.3125 -2.875 0.3125 -4.125 L 0.3125 -4.40625 C 0.3125 -5.644531 0.671875 -6.660156 1.390625 -7.453125 C 2.117188 -8.253906 3.0625 -8.65625 4.21875 -8.65625 C 4.875 -8.65625 5.46875 -8.535156 6 -8.296875 C 6.53125 -8.054688 6.96875 -7.738281 7.3125 -7.34375 Z M 7.3125 -5.65625 "/></g></g></g><g fill="#ffffff" fill-opacity="1"><g transform="translate(309.821037, 219.971513)"><g><path d="M 5.84375 -3.75 L 2.953125 -3.75 L 2.953125 -1.3125 L 5.703125 -1.3125 L 5.78125 -2.328125 L 7.078125 -2.328125 L 7.078125 0 L 0.328125 0 L 0.328125 -1.03125 L 1.234375 -1.203125 L 1.234375 -7.328125 L 0.328125 -7.5 L 0.328125 -8.53125 L 7.0625 -8.53125 L 7.0625 -6.1875 L 5.75 -6.1875 L 5.671875 -7.21875 L 2.953125 -7.21875 L 2.953125 -5.0625 L 5.84375 -5.0625 Z M 5.84375 -3.75 "/></g></g></g><g fill="#ffffff" fill-opacity="1"><g transform="translate(202.727305, 200.903908)"><g><path d="M 7.140625 -5.265625 L 7.109375 -5.265625 L 5.203125 0 L 4.25 0 L 2.34375 -5.25 L 2.3125 -5.234375 L 2.453125 -2.125 L 2.453125 -1 L 3.21875 -0.859375 L 3.21875 0 L 0.28125 0 L 0.28125 -0.859375 L 1.03125 -1 L 1.03125 -6.109375 L 0.28125 -6.25 L 0.28125 -7.109375 L 2.890625 -7.109375 L 4.703125 -1.875 L 4.734375 -1.875 L 6.5625 -7.109375 L 9.1875 -7.109375 L 9.1875 -6.25 L 8.421875 -6.109375 L 8.421875 -1 L 9.1875 -0.859375 L 9.1875 0 L 6.234375 0 L 6.234375 -0.859375 L 7 -1 L 7 -2.125 Z M 7.140625 -5.265625 "/></g></g></g><g fill="#ffffff" fill-opacity="1"><g transform="translate(214.562601, 200.903908)"><g><path d="M 0.3125 -2.6875 C 0.3125 -3.476562 0.53125 -4.125 0.96875 -4.625 C 1.40625 -5.125 2.015625 -5.375 2.796875 -5.375 C 3.578125 -5.375 4.1875 -5.125 4.625 -4.625 C 5.070312 -4.125 5.296875 -3.476562 5.296875 -2.6875 L 5.296875 -2.59375 C 5.296875 -1.789062 5.070312 -1.140625 4.625 -0.640625 C 4.1875 -0.140625 3.582031 0.109375 2.8125 0.109375 C 2.019531 0.109375 1.40625 -0.140625 0.96875 -0.640625 C 0.53125 -1.140625 0.3125 -1.789062 0.3125 -2.59375 Z M 1.734375 -2.59375 C 1.734375 -2.101562 1.816406 -1.710938 1.984375 -1.421875 C 2.148438 -1.128906 2.425781 -0.984375 2.8125 -0.984375 C 3.175781 -0.984375 3.441406 -1.128906 3.609375 -1.421875 C 3.785156 -1.722656 3.875 -2.113281 3.875 -2.59375 L 3.875 -2.6875 C 3.875 -3.15625 3.785156 -3.535156 3.609375 -3.828125 C 3.441406 -4.128906 3.171875 -4.28125 2.796875 -4.28125 C 2.421875 -4.28125 2.148438 -4.128906 1.984375 -3.828125 C 1.816406 -3.535156 1.734375 -3.15625 1.734375 -2.6875 Z M 1.734375 -2.59375 "/></g></g></g><g fill="#ffffff" fill-opacity="1"><g transform="translate(222.585905, 200.903908)"><g><path d="M 2.40625 -6.578125 L 2.40625 -5.28125 L 3.34375 -5.28125 L 3.34375 -4.28125 L 2.40625 -4.28125 L 2.40625 -1.59375 C 2.40625 -1.382812 2.445312 -1.234375 2.53125 -1.140625 C 2.625 -1.054688 2.738281 -1.015625 2.875 -1.015625 C 2.976562 -1.015625 3.066406 -1.019531 3.140625 -1.03125 C 3.210938 -1.039062 3.296875 -1.054688 3.390625 -1.078125 L 3.5 -0.046875 C 3.34375 0.00390625 3.1875 0.0390625 3.03125 0.0625 C 2.875 0.09375 2.707031 0.109375 2.53125 0.109375 C 2.03125 0.109375 1.644531 -0.0234375 1.375 -0.296875 C 1.113281 -0.566406 0.984375 -1 0.984375 -1.59375 L 0.984375 -4.28125 L 0.21875 -4.28125 L 0.21875 -5.28125 L 0.984375 -5.28125 L 0.984375 -6.578125 Z M 2.40625 -6.578125 "/></g></g></g><g fill="#ffffff" fill-opacity="1"><g transform="translate(228.734941, 200.903908)"><g><path d="M 0.3125 -2.6875 C 0.3125 -3.476562 0.53125 -4.125 0.96875 -4.625 C 1.40625 -5.125 2.015625 -5.375 2.796875 -5.375 C 3.578125 -5.375 4.1875 -5.125 4.625 -4.625 C 5.070312 -4.125 5.296875 -3.476562 5.296875 -2.6875 L 5.296875 -2.59375 C 5.296875 -1.789062 5.070312 -1.140625 4.625 -0.640625 C 4.1875 -0.140625 3.582031 0.109375 2.8125 0.109375 C 2.019531 0.109375 1.40625 -0.140625 0.96875 -0.640625 C 0.53125 -1.140625 0.3125 -1.789062 0.3125 -2.59375 Z M 1.734375 -2.59375 C 1.734375 -2.101562 1.816406 -1.710938 1.984375 -1.421875 C 2.148438 -1.128906 2.425781 -0.984375 2.8125 -0.984375 C 3.175781 -0.984375 3.441406 -1.128906 3.609375 -1.421875 C 3.785156 -1.722656 3.875 -2.113281 3.875 -2.59375 L 3.875 -2.6875 C 3.875 -3.15625 3.785156 -3.535156 3.609375 -3.828125 C 3.441406 -4.128906 3.171875 -4.28125 2.796875 -4.28125 C 2.421875 -4.28125 2.148438 -4.128906 1.984375 -3.828125 C 1.816406 -3.535156 1.734375 -3.15625 1.734375 -2.6875 Z M 1.734375 -2.59375 "/></g></g></g><g fill="#ffffff" fill-opacity="1"><g transform="translate(236.758244, 200.903908)"><g><path d="M 0.421875 -0.859375 L 1.09375 -1 L 1.09375 -4.28125 L 0.34375 -4.421875 L 0.34375 -5.28125 L 2.421875 -5.28125 L 2.484375 -4.515625 C 2.609375 -4.785156 2.769531 -4.992188 2.96875 -5.140625 C 3.164062 -5.296875 3.390625 -5.375 3.640625 -5.375 C 3.722656 -5.375 3.804688 -5.367188 3.890625 -5.359375 C 3.972656 -5.347656 4.039062 -5.335938 4.09375 -5.328125 L 3.9375 -4.03125 L 3.359375 -4.03125 C 3.148438 -4.03125 2.972656 -3.988281 2.828125 -3.90625 C 2.691406 -3.832031 2.59375 -3.71875 2.53125 -3.5625 L 2.53125 -1 L 3.203125 -0.859375 L 3.203125 0 L 0.421875 0 Z M 0.421875 -0.859375 "/></g></g></g><g fill="#ffffff" fill-opacity="1"><g transform="translate(243.385609, 200.903908)"><g><path d="M 4.625 -3.46875 L 3.65625 -3.46875 L 3.515625 -4.125 C 3.410156 -4.207031 3.285156 -4.273438 3.140625 -4.328125 C 2.992188 -4.378906 2.832031 -4.40625 2.65625 -4.40625 C 2.40625 -4.40625 2.207031 -4.347656 2.0625 -4.234375 C 1.914062 -4.117188 1.84375 -3.976562 1.84375 -3.8125 C 1.84375 -3.644531 1.910156 -3.507812 2.046875 -3.40625 C 2.179688 -3.300781 2.460938 -3.207031 2.890625 -3.125 C 3.546875 -3 4.03125 -2.804688 4.34375 -2.546875 C 4.65625 -2.296875 4.8125 -1.953125 4.8125 -1.515625 C 4.8125 -1.035156 4.609375 -0.644531 4.203125 -0.34375 C 3.796875 -0.0390625 3.257812 0.109375 2.59375 0.109375 C 2.1875 0.109375 1.8125 0.0507812 1.46875 -0.0625 C 1.125 -0.1875 0.820312 -0.363281 0.5625 -0.59375 L 0.546875 -1.765625 L 1.546875 -1.765625 L 1.734375 -1.078125 C 1.816406 -1.015625 1.929688 -0.960938 2.078125 -0.921875 C 2.234375 -0.890625 2.390625 -0.875 2.546875 -0.875 C 2.835938 -0.875 3.054688 -0.925781 3.203125 -1.03125 C 3.359375 -1.132812 3.4375 -1.273438 3.4375 -1.453125 C 3.4375 -1.609375 3.359375 -1.742188 3.203125 -1.859375 C 3.046875 -1.972656 2.765625 -2.070312 2.359375 -2.15625 C 1.734375 -2.289062 1.257812 -2.476562 0.9375 -2.71875 C 0.625 -2.96875 0.46875 -3.3125 0.46875 -3.75 C 0.46875 -4.1875 0.648438 -4.566406 1.015625 -4.890625 C 1.378906 -5.210938 1.898438 -5.375 2.578125 -5.375 C 2.984375 -5.375 3.367188 -5.316406 3.734375 -5.203125 C 4.109375 -5.097656 4.398438 -4.957031 4.609375 -4.78125 Z M 4.625 -3.46875 "/></g></g></g><path fill="#ffffff" d="M 87.484375 183.535156 C 87.457031 183.566406 87.425781 183.601562 87.394531 183.636719 L 84.964844 186.0625 C 84.492188 186.539062 83.828125 186.640625 83.484375 186.296875 L 81.964844 184.78125 C 81.621094 184.4375 81.726562 183.769531 82.199219 183.296875 L 84.625 180.871094 C 84.660156 180.835938 84.695312 180.804688 84.730469 180.777344 C 84.105469 180.164062 83.105469 180.167969 82.488281 180.789062 L 79.84375 183.429688 C 78.890625 184.386719 79.289062 186.214844 79.910156 186.835938 L 81.425781 188.351562 C 82.046875 188.976562 83.863281 189.386719 84.832031 188.417969 L 87.476562 185.773438 C 88.09375 185.15625 88.097656 184.15625 87.484375 183.535156 " fill-opacity="1" fill-rule="nonzero"/><g clip-path="url(#8f5b235987)"><path fill="#ffffff" d="M 65.976562 199.527344 C 66.003906 199.492188 66.035156 199.460938 66.070312 199.425781 L 68.496094 197 C 68.972656 196.523438 69.636719 196.421875 69.980469 196.765625 L 71.496094 198.28125 C 71.84375 198.625 71.738281 199.292969 71.265625 199.765625 L 68.835938 202.191406 C 68.804688 202.226562 68.769531 202.257812 68.734375 202.285156 C 69.355469 202.898438 70.355469 202.894531 70.976562 202.277344 L 73.621094 199.632812 C 74.574219 198.675781 74.175781 196.847656 73.550781 196.226562 L 72.035156 194.710938 C 71.414062 194.085938 69.597656 193.675781 68.632812 194.644531 L 65.988281 197.289062 C 65.371094 197.90625 65.367188 198.90625 65.976562 199.527344 " fill-opacity="1" fill-rule="nonzero"/></g><path fill="#ffffff" d="M 82.191406 186.070312 C 81.433594 185.3125 80.375 185.144531 79.828125 185.691406 L 70.765625 194.753906 C 70.214844 195.304688 70.386719 196.363281 71.144531 197.121094 C 71.902344 197.878906 72.960938 198.046875 73.507812 197.496094 L 82.570312 188.4375 C 83.117188 187.886719 82.949219 186.828125 82.191406 186.070312 " fill-opacity="1" fill-rule="nonzero"/><path fill="#000000" d="M 74.410156 195.179688 C 74.054688 195.535156 73.472656 195.523438 73.105469 195.15625 C 72.738281 194.789062 72.726562 194.207031 73.082031 193.851562 L 78.925781 188.011719 C 79.28125 187.65625 79.863281 187.667969 80.230469 188.03125 C 80.597656 188.398438 80.605469 188.984375 80.253906 189.335938 L 74.410156 195.179688 " fill-opacity="1" fill-rule="nonzero"/><g clip-path="url(#8115a3cecb)"><path fill="#ffffff" d="M 66.441406 179.488281 C 65.375 180.292969 65.164062 181.808594 65.96875 182.875 L 71.304688 189.9375 L 75.160156 187.023438 L 69.828125 179.960938 C 69.023438 178.894531 67.507812 178.683594 66.441406 179.488281 " fill-opacity="1" fill-rule="nonzero"/></g><g clip-path="url(#84b2221875)"><path fill="#ffffff" d="M 81.589844 198.066406 C 81.941406 198.15625 82.542969 198.425781 82.828125 198.808594 L 84.59375 201.4375 L 82.867188 202.742188 L 80.824219 200.320312 C 80.542969 199.816406 80.425781 199.238281 80.550781 198.851562 L 72.515625 188.507812 C 72.046875 187.890625 71.671875 187.382812 72.207031 186.984375 C 72.738281 186.582031 73.085938 187.105469 73.554688 187.726562 L 81.589844 198.066406 " fill-opacity="1" fill-rule="nonzero"/></g><path fill="#ffffff" d="M 75.242188 186.210938 C 75.441406 186.476562 75.632812 186.667969 75.371094 186.863281 L 71.09375 190.097656 C 70.832031 190.292969 70.695312 190.0625 70.496094 189.796875 C 70.296875 189.535156 70.113281 189.339844 70.375 189.140625 L 74.652344 185.914062 C 74.914062 185.714844 75.042969 185.949219 75.242188 186.210938 " fill-opacity="1" fill-rule="nonzero"/><path fill="#000000" d="M 71.488281 187.21875 C 71.644531 187.421875 71.578125 187.726562 71.347656 187.902344 C 71.117188 188.078125 70.804688 188.054688 70.648438 187.851562 L 66.675781 182.589844 C 66.523438 182.386719 66.585938 182.082031 66.820312 181.90625 C 67.050781 181.730469 67.363281 181.753906 67.515625 181.957031 L 71.488281 187.21875 " fill-opacity="1" fill-rule="nonzero"/><path fill="#000000" d="M 73.308594 185.84375 C 73.460938 186.046875 73.398438 186.355469 73.164062 186.527344 C 72.933594 186.703125 72.621094 186.679688 72.46875 186.476562 L 68.496094 181.21875 C 68.339844 181.015625 68.40625 180.707031 68.636719 180.53125 C 68.867188 180.359375 69.179688 180.378906 69.335938 180.582031 L 73.308594 185.84375 " fill-opacity="1" fill-rule="nonzero"/><path fill="#ffffff" d="M 113.179688 215.285156 C 113.355469 215.285156 113.523438 215.214844 113.648438 215.089844 C 113.773438 214.964844 113.84375 214.796875 113.84375 214.617188 C 113.84375 214.441406 113.773438 214.273438 113.648438 214.144531 C 113.527344 214.023438 113.355469 213.953125 113.179688 213.953125 C 113 213.953125 112.835938 214.023438 112.707031 214.144531 C 112.582031 214.269531 112.511719 214.441406 112.511719 214.617188 C 112.511719 214.796875 112.582031 214.960938 112.707031 215.089844 C 112.835938 215.214844 113 215.285156 113.179688 215.285156 Z M 113.019531 214.460938 C 113.0625 214.417969 113.117188 214.394531 113.179688 214.394531 C 113.238281 214.394531 113.292969 214.417969 113.335938 214.460938 C 113.378906 214.5 113.402344 214.558594 113.402344 214.617188 C 113.402344 214.679688 113.378906 214.730469 113.335938 214.777344 C 113.296875 214.816406 113.238281 214.839844 113.179688 214.839844 C 113.117188 214.839844 113.066406 214.816406 113.019531 214.777344 C 112.980469 214.734375 112.957031 214.679688 112.957031 214.617188 C 112.957031 214.558594 112.980469 214.503906 113.019531 214.460938 Z M 113.019531 214.460938 " fill-opacity="1" fill-rule="nonzero"/><path fill="#ffffff" d="M 105.84375 221.636719 L 106.160156 221.324219 L 106.472656 221.636719 L 106.160156 221.953125 Z M 105.84375 221.636719 " fill-opacity="1" fill-rule="nonzero"/><path fill="#ffffff" d="M 106.628906 220.855469 L 109.925781 217.558594 L 110.238281 217.871094 L 106.945312 221.167969 Z M 106.628906 220.855469 " fill-opacity="1" fill-rule="nonzero"/><g clip-path="url(#967b81a72e)"><path fill="#ffffff" d="M 117.703125 213.875 L 116.730469 213.496094 L 116.480469 212.902344 L 116.902344 211.941406 C 116.941406 211.859375 116.921875 211.761719 116.855469 211.695312 L 116.097656 210.9375 C 116.035156 210.875 115.9375 210.855469 115.851562 210.890625 L 114.894531 211.3125 L 114.300781 211.066406 L 113.921875 210.089844 C 113.890625 210.003906 113.804688 209.949219 113.714844 209.949219 L 112.640625 209.949219 C 112.550781 209.949219 112.464844 210.003906 112.433594 210.089844 L 112.054688 211.066406 L 111.460938 211.316406 L 110.503906 210.894531 C 110.417969 210.855469 110.320312 210.875 110.253906 210.941406 L 109.5 211.699219 C 109.433594 211.761719 109.414062 211.859375 109.449219 211.945312 L 109.871094 212.902344 L 109.625 213.496094 L 108.648438 213.878906 C 108.5625 213.910156 108.507812 213.992188 108.507812 214.085938 L 108.507812 215.160156 C 108.507812 215.25 108.5625 215.332031 108.648438 215.367188 L 108.804688 215.429688 C 108.804688 215.4375 108.800781 215.445312 108.800781 215.449219 C 108.726562 216.027344 108.828125 216.613281 109.089844 217.128906 L 104.832031 221.101562 C 104.636719 221.28125 104.523438 221.539062 104.523438 221.804688 C 104.523438 222.058594 104.625 222.300781 104.804688 222.484375 L 105.308594 222.988281 C 105.492188 223.171875 105.734375 223.269531 105.992188 223.273438 C 106.257812 223.273438 106.515625 223.164062 106.695312 222.96875 L 109.578125 219.878906 L 109.253906 219.578125 L 106.371094 222.667969 C 106.273438 222.773438 106.132812 222.832031 105.992188 222.832031 C 105.855469 222.832031 105.71875 222.773438 105.621094 222.675781 L 105.117188 222.171875 C 105.023438 222.070312 104.96875 221.941406 104.96875 221.800781 C 104.96875 221.65625 105.03125 221.519531 105.136719 221.425781 L 109.523438 217.332031 C 109.597656 217.261719 109.613281 217.148438 109.5625 217.058594 C 108.984375 216.078125 109.15625 214.84375 109.976562 214.058594 C 110.554688 213.5 111.386719 213.269531 112.167969 213.433594 L 110.722656 214.878906 C 110.664062 214.9375 110.644531 215.027344 110.671875 215.105469 L 111.144531 216.519531 C 111.164062 216.585938 111.21875 216.636719 111.285156 216.660156 L 112.695312 217.128906 C 112.777344 217.160156 112.863281 217.136719 112.921875 217.078125 L 114.109375 215.894531 C 114.089844 216.507812 113.835938 217.105469 113.394531 217.550781 C 112.722656 218.222656 111.710938 218.441406 110.820312 218.113281 C 110.734375 218.082031 110.640625 218.105469 110.578125 218.167969 L 109.695312 219.113281 L 110.019531 219.417969 L 110.804688 218.574219 C 111.085938 218.664062 111.375 218.707031 111.664062 218.707031 C 111.859375 218.707031 112.050781 218.6875 112.242188 218.648438 L 112.4375 219.148438 C 112.472656 219.234375 112.554688 219.289062 112.644531 219.289062 L 113.71875 219.289062 C 113.8125 219.289062 113.894531 219.234375 113.925781 219.148438 L 114.308594 218.171875 L 114.902344 217.925781 L 115.859375 218.34375 C 115.945312 218.382812 116.042969 218.363281 116.109375 218.296875 L 116.863281 217.542969 C 116.929688 217.476562 116.949219 217.378906 116.910156 217.292969 L 116.492188 216.335938 L 116.738281 215.742188 L 117.714844 215.359375 C 117.800781 215.328125 117.855469 215.246094 117.855469 215.152344 L 117.855469 214.078125 C 117.84375 213.992188 117.789062 213.90625 117.703125 213.875 Z M 108.957031 214.824219 L 108.957031 214.230469 L 109.367188 214.070312 C 109.191406 214.300781 109.054688 214.554688 108.957031 214.824219 Z M 112.921875 213.304688 L 114.101562 213.695312 L 114.492188 214.871094 L 113.429688 215.933594 L 112.253906 215.542969 L 111.863281 214.367188 Z M 112.703125 216.660156 L 111.527344 216.269531 L 111.136719 215.09375 L 111.515625 214.71875 L 111.871094 215.789062 C 111.894531 215.855469 111.949219 215.90625 112.015625 215.929688 L 113.085938 216.289062 Z M 117.398438 215.003906 L 116.480469 215.359375 C 116.425781 215.382812 116.375 215.429688 116.355469 215.484375 L 116.035156 216.25 C 116.011719 216.308594 116.011719 216.371094 116.039062 216.425781 L 116.4375 217.332031 L 115.894531 217.875 L 114.988281 217.476562 C 114.933594 217.453125 114.867188 217.453125 114.8125 217.476562 L 114.042969 217.792969 C 113.988281 217.816406 113.945312 217.863281 113.921875 217.917969 L 113.5625 218.839844 L 112.796875 218.839844 L 112.671875 218.515625 C 113.054688 218.375 113.410156 218.152344 113.707031 217.855469 C 113.863281 217.699219 113.996094 217.53125 114.113281 217.347656 C 114.660156 217.160156 115.148438 216.804688 115.496094 216.34375 C 115.871094 215.839844 116.070312 215.246094 116.070312 214.617188 C 116.070312 213.996094 115.875 213.40625 115.503906 212.90625 L 115.148438 213.171875 C 115.457031 213.589844 115.621094 214.09375 115.621094 214.617188 C 115.621094 215.152344 115.453125 215.65625 115.132812 216.078125 C 114.9375 216.339844 114.683594 216.5625 114.398438 216.730469 C 114.53125 216.328125 114.578125 215.894531 114.527344 215.464844 L 114.902344 215.085938 C 114.960938 215.027344 114.984375 214.941406 114.957031 214.859375 L 114.484375 213.449219 C 114.464844 213.382812 114.410156 213.328125 114.34375 213.304688 L 112.933594 212.835938 C 112.851562 212.808594 112.765625 212.828125 112.703125 212.886719 L 112.53125 213.0625 C 112.15625 212.945312 111.773438 212.910156 111.394531 212.945312 C 111.855469 212.464844 112.5 212.175781 113.179688 212.175781 C 113.78125 212.175781 114.359375 212.398438 114.808594 212.796875 L 115.105469 212.46875 C 114.574219 211.992188 113.890625 211.734375 113.179688 211.734375 C 112.1875 211.734375 111.253906 212.253906 110.730469 213.09375 C 110.535156 213.160156 110.347656 213.246094 110.167969 213.351562 L 110.320312 212.984375 C 110.34375 212.929688 110.34375 212.863281 110.320312 212.808594 L 109.917969 211.902344 L 110.464844 211.359375 L 111.371094 211.757812 C 111.425781 211.785156 111.488281 211.785156 111.546875 211.761719 L 112.3125 211.441406 C 112.367188 211.421875 112.414062 211.371094 112.433594 211.316406 L 112.792969 210.398438 L 113.5625 210.398438 L 113.921875 211.316406 C 113.945312 211.371094 113.988281 211.421875 114.042969 211.441406 L 114.8125 211.761719 C 114.867188 211.785156 114.933594 211.785156 114.988281 211.757812 L 115.894531 211.359375 L 116.4375 211.902344 L 116.039062 212.808594 C 116.011719 212.863281 116.011719 212.929688 116.035156 212.984375 L 116.355469 213.753906 C 116.375 213.808594 116.425781 213.851562 116.480469 213.875 L 117.398438 214.230469 Z M 117.398438 215.003906 " fill-opacity="1" fill-rule="nonzero"/></g></svg>